<svg viewBox="0 0 48 48" xmlns="http://www.w3.org/2000/svg"><title>播放影片</title><path d="m38.7527 14.9332c-1.1551-1.3731-3.2877-1.9332-7.3606-1.9332h-14.7845c-4.1661 0-6.3349.5962-7.48564 2.0581-1.12196 1.4254-1.12196 3.5255-1.12196 6.4321v5.54c0 5.6311 1.3312 8.4902 8.6076 8.4902h14.7846c3.532 0 5.4891-.4943 6.7553-1.7061 1.2985-1.2426 1.8525-3.2715 1.8525-6.7841v-5.54c0-3.0653-.0868-5.1778-1.2473-6.557zm-10.2086 10.0919-6.7136 3.5087c-.1501.0785-.3142.1174-.4781.1174-.1856 0-.3708-.05-.5349-.1493-.3088-.1871-.4974-.5219-.4974-.883v-6.995c0-.3604.1881-.6949.4963-.8821.3083-.1873.6918-.2001 1.0117-.0339l6.7136 3.4862c.3416.1773.5561.5299.5566.9146.0004.3851-.2131.7382-.5542.9164z" fill="#f2f3f7"/></svg>