<svg viewBox="0 0 48 48" xmlns="http://www.w3.org/2000/svg"><circle cx="24" cy="24" fill="#3c4767" r="24"/><path d="m26.55 7.924c.364.392 1.19 1.148 2.478 2.268 1.316 1.12 2.478 2.156 3.486 3.108s1.946 2.17 2.814 3.654 1.302 2.926 1.302 4.326c0 2.688-1.638 5.124-4.914 7.308-.476.336-.896.252-1.26-.252-.336-.476-.28-.896.168-1.26 1.4-1.064 2.324-1.96 2.772-2.688.476-.756.714-1.652.714-2.688 0-1.316-.686-2.702-2.058-4.158-1.344-1.484-3.276-2.786-5.796-3.906-.084-.028-.168-.014-.252.042-.056.056-.084.126-.084.21v18.732c0 1.988-.56 3.542-1.68 4.662-1.12 1.092-2.66 1.638-4.62 1.638-1.344 0-2.45-.35-3.318-1.05-.868-.728-1.302-1.638-1.302-2.73 0-1.372.546-2.52 1.638-3.444s2.506-1.386 4.242-1.386c.896 0 1.764.154 2.604.462h.084c.028-.028.042-.056.042-.084v-22.512c0-.308.112-.574.336-.798.224-.252.49-.378.798-.378.644 0 1.246.308 1.806.924z" fill="hsl(16,68%,68%)"/></svg>