<svg width="20" height="20" viewBox="0 0 20 20" fill="none" xmlns="http://www.w3.org/2000/svg">
<circle cx="10" cy="10" r="10" fill="#3C4767"/>
<path d="M10.3137 3.146C10.4697 3.314 10.8237 3.638 11.3757 4.118C11.9397 4.598 12.4377 5.042 12.8697 5.45C13.3017 5.858 13.7037 6.38 14.0757 7.016C14.4477 7.652 14.6337 8.27 14.6337 8.87C14.6337 10.022 13.9317 11.066 12.5277 12.002C12.3237 12.146 12.1437 12.11 11.9877 11.894C11.8437 11.69 11.8677 11.51 12.0597 11.354C12.6597 10.898 13.0557 10.514 13.2477 10.202C13.4517 9.878 13.5537 9.494 13.5537 9.05C13.5537 8.486 13.2597 7.892 12.6717 7.268C12.0957 6.632 11.2677 6.074 10.1877 5.594C10.1517 5.582 10.1157 5.588 10.0797 5.612C10.0557 5.636 10.0437 5.666 10.0437 5.702V13.73C10.0437 14.582 9.80374 15.248 9.32374 15.728C8.84374 16.196 8.18374 16.43 7.34374 16.43C6.76774 16.43 6.29374 16.28 5.92174 15.98C5.54974 15.668 5.36374 15.278 5.36374 14.81C5.36374 14.222 5.59774 13.73 6.06574 13.334C6.53374 12.938 7.13974 12.74 7.88374 12.74C8.26774 12.74 8.63974 12.806 8.99974 12.938H9.03574C9.04774 12.926 9.05374 12.914 9.05374 12.902V3.254C9.05374 3.122 9.10174 3.008 9.19774 2.912C9.29374 2.804 9.40774 2.75 9.53974 2.75C9.81574 2.75 10.0737 2.882 10.3137 3.146Z" fill="#A1B9CE"/>
</svg>
