<svg viewBox="0 0 48 48" fill="none" xmlns="http://www.w3.org/2000/svg">
<circle cx="24" cy="24" r="24" fill="#BFC5D9"/>
<path d="M26.55 7.924C26.914 8.316 27.74 9.072 29.028 10.192C30.344 11.312 31.506 12.348 32.514 13.3C33.522 14.252 34.46 15.47 35.328 16.954C36.196 18.438 36.63 19.88 36.63 21.28C36.63 23.968 34.992 26.404 31.716 28.588C31.24 28.924 30.82 28.84 30.456 28.336C30.12 27.86 30.176 27.44 30.624 27.076C32.024 26.012 32.948 25.116 33.396 24.388C33.872 23.632 34.11 22.736 34.11 21.7C34.11 20.384 33.424 18.998 32.052 17.542C30.708 16.058 28.776 14.756 26.256 13.636C26.172 13.608 26.088 13.622 26.004 13.678C25.948 13.734 25.92 13.804 25.92 13.888V32.62C25.92 34.608 25.36 36.162 24.24 37.282C23.12 38.374 21.58 38.92 19.62 38.92C18.276 38.92 17.17 38.57 16.302 37.87C15.434 37.142 15 36.232 15 35.14C15 33.768 15.546 32.62 16.638 31.696C17.73 30.772 19.144 30.31 20.88 30.31C21.776 30.31 22.644 30.464 23.484 30.772H23.568C23.596 30.744 23.61 30.716 23.61 30.688V8.176C23.61 7.868 23.722 7.602 23.946 7.378C24.17 7.126 24.436 7 24.744 7C25.388 7 25.99 7.308 26.55 7.924Z" fill="#3C4767"/>
</svg>
